<svg width="66" height="66" viewBox="0 0 66 66" fill="none" xmlns="http://www.w3.org/2000/svg">
<g clip-path="url(#clip0_15134_67401)">
<rect width="65.25" height="65.25" rx="14.1081" fill="#0032A0"/>
<path d="M50.7534 33.3596C49.2243 36.5348 37.6715 49.0739 20.0922 51.2326C19.3439 51.3243 17.9917 51.2488 17.3659 49.701C12.1711 36.8595 15.7905 22.7016 18.7481 16.3609C19.1955 15.4016 20.3103 14.7412 21.447 14.7412C21.5074 14.7412 21.568 14.7432 21.6284 14.7467C36.9105 15.706 49.6035 28.0091 50.8017 30.0887C51.4971 31.2957 51.3105 32.2018 50.7534 33.3596ZM52.3926 29.4662C51.1064 27.2339 37.5268 14.0299 21.2437 13.0085C19.5771 12.9001 17.9284 13.8346 17.2573 15.274C14.1131 22.0142 10.2682 37.0693 15.7993 50.7418C16.3821 52.1828 17.6108 53 19.1469 53C19.3298 53 19.5169 52.9884 19.7076 52.9647C38.6613 50.6371 50.6689 37.3631 52.3773 33.815C53.0658 32.3841 53.3321 31.0968 52.3926 29.4662Z" fill="white"/>
<path d="M30.0182 29.0838C29.5688 30.2138 28.8925 31.3766 28.2314 32.5285C27.6719 31.3766 27.1118 30.2138 26.7621 29.0838H25.0863C25.8268 31.1449 26.6348 32.8777 28.1212 35.176C29.8107 32.8777 30.7717 31.1449 31.6941 29.0838H30.0182Z" fill="white"/>
<path d="M33.8563 29.0838L33.5922 35.0651H32.0383L32.3024 29.0838H33.8563ZM32.2278 27.5029C32.2513 26.9712 32.6572 26.5836 33.1899 26.5836C33.7226 26.5836 34.1048 26.9712 34.0813 27.5029C34.0578 28.0346 33.6415 28.4222 33.1087 28.4222C32.576 28.4222 32.2043 28.0346 32.2278 27.5029Z" fill="white"/>
<path d="M39.4521 32.0746C39.502 30.9447 38.8805 30.1915 37.9258 30.1915C36.9603 30.1915 36.2831 30.9447 36.2332 32.0746C36.1834 33.2043 36.794 33.9574 37.7595 33.9574C38.7142 33.9574 39.4023 33.2043 39.4521 32.0746ZM34.635 32.0746C34.7171 30.2138 36.0597 28.9732 37.9908 28.9732C39.8998 28.9732 41.1438 30.2138 41.0616 32.0746C40.9795 33.9354 39.626 35.176 37.717 35.176C35.7859 35.176 34.5528 33.9354 34.635 32.0746Z" fill="white"/>
<path d="M43.7907 32.75L43.3731 32.6503C42.3725 32.4399 41.745 32.0746 41.7944 30.9558C41.8492 29.7152 42.7364 28.9732 44.1682 28.9732C44.8341 28.9732 45.5493 29.117 46.0391 29.3385L45.9907 30.435C45.4116 30.2246 44.8047 30.1471 44.4383 30.1471C43.7168 30.1471 43.4079 30.3575 43.3928 30.7008C43.3786 31.0221 43.7046 31.1773 44.2104 31.2879L44.6056 31.3877C45.5837 31.6092 46.2847 32.0746 46.2333 33.2374C46.1796 34.456 45.2931 35.176 43.8832 35.176C43.2508 35.176 42.3913 35.0319 41.8496 34.733L41.8981 33.6362C42.4856 33.902 43.1359 34.0018 43.6355 34.0018C44.3014 34.0018 44.6101 33.8022 44.6273 33.4146C44.6429 33.0602 44.318 32.8721 43.7907 32.75Z" fill="white"/>
<path d="M19.9064 32.1076C19.9558 30.9888 20.655 30.2356 21.7018 30.2356C22.061 30.2356 22.4687 30.3465 22.8518 30.5238L22.7119 33.6925C22.32 33.9471 21.8948 34.0016 21.5036 34.0016C20.4887 34.0016 19.8561 33.2484 19.9064 32.1076ZM24.4925 29.0725C23.9747 29.0725 23.429 29.1834 23.0703 29.405C22.5843 29.1611 21.9773 29.0174 21.375 29.0174C19.6623 29.0174 18.4556 30.2468 18.3739 32.0965C18.2913 33.9685 19.3781 35.2202 21.0905 35.2202C22.1664 35.2202 22.767 34.8954 22.8968 34.8167C23.262 35.0065 23.7475 35.1434 24.2208 35.1434L24.2347 34.8275L24.2384 34.8276L24.4925 29.0725Z" fill="white"/>
</g>
<defs>
<clipPath id="clip0_15134_67401">
<rect width="65.25" height="65.25" rx="14.1081" fill="white"/>
</clipPath>
</defs>
</svg>